<svg width="375" height="157" viewBox="0 0 375 157" fill="none" xmlns="http://www.w3.org/2000/svg">
<path d="M-29.0139 172.798C-72.5368 177.742 -94.7221 122.051 -59.7216 95.7139L-24.9539 69.5519C-19.9806 65.8099 -14.2543 63.1919 -8.17034 61.8789L274.067 0.968793C289.288 -2.31611 305.096 2.88459 315.393 14.5651L397.442 107.633C409.817 121.67 411.693 142.099 402.081 158.155L395.123 169.778C385.696 185.526 367.313 193.555 349.354 189.766L289.202 177.079C283.641 175.906 277.902 175.847 272.319 176.905L160.297 198.14C149.789 200.132 138.916 198.137 129.801 192.544L90.4627 168.407C82.2823 163.388 72.6578 161.249 63.1216 162.333L-29.0139 172.798Z" fill="white" fill-opacity="0.33"/>
</svg>
