<svg width="375" height="72" viewBox="0 0 375 72" fill="none" xmlns="http://www.w3.org/2000/svg">
<path d="M1.98626 45.7979C-41.5366 50.7416 -63.7219 -4.94921 -28.7214 -31.2864L6.04626 -57.4484C11.0196 -61.1906 16.7459 -63.8087 22.8298 -65.1217L305.067 -126.031C320.288 -129.316 336.096 -124.115 346.393 -112.435L428.442 -19.367C440.817 -5.33005 442.693 15.0986 433.081 31.1547L426.123 42.7777C416.696 58.5257 398.313 66.5542 380.354 62.7662L320.202 50.0784C314.641 48.9055 308.902 48.8466 303.319 49.905L191.297 71.1401C180.789 73.132 169.916 71.1366 160.801 65.5434L121.463 41.4067C113.282 36.3874 103.658 34.2491 94.1213 35.3323L1.98626 45.7979Z" fill="white" fill-opacity="0.33"/>
</svg>
