<svg width="375" height="102" viewBox="0 0 375 102" fill="none" xmlns="http://www.w3.org/2000/svg">
<path d="M-46.0138 172.798C-89.5367 177.742 -111.722 122.051 -76.7215 95.7139L-41.9538 69.5519C-36.9805 65.8099 -31.2542 63.1919 -25.1703 61.8789L257.067 0.968938C272.288 -2.31606 288.096 2.88493 298.393 14.5649L380.442 107.633C392.817 121.67 394.693 142.099 385.081 158.155L378.123 169.778C368.696 185.526 350.313 193.555 332.354 189.766L272.202 177.079C266.641 175.906 260.902 175.847 255.319 176.905L143.297 198.14C132.789 200.132 121.916 198.137 112.801 192.544L73.4628 168.407C65.2824 163.388 55.6579 161.249 46.1217 162.333L-46.0138 172.798Z" fill="white" fill-opacity="0.33"/>
</svg>
