<svg width="375" height="127" viewBox="0 0 375 127" fill="none" xmlns="http://www.w3.org/2000/svg">
<path d="M-15.0137 100.798C-58.5366 105.742 -80.7219 50.0508 -45.7214 23.7136L-10.9537 -2.44836C-5.98046 -6.19061 -0.254135 -8.80866 5.82977 -10.1216L288.067 -71.0313C303.288 -74.3162 319.096 -69.1155 329.393 -57.435L411.442 35.633C423.817 49.67 425.693 70.0986 416.081 86.1547L409.123 97.7778C399.696 113.526 381.313 121.555 363.354 117.766L303.202 105.079C297.641 103.906 291.902 103.847 286.319 104.905L174.297 126.14C163.789 128.132 152.916 126.137 143.801 120.544L104.463 96.4068C96.2823 91.3874 86.658 89.2492 77.1218 90.3324L-15.0137 100.798Z" fill="white" fill-opacity="0.33"/>
</svg>
